<svg data-v-5f19e91b="" xmlns="http://www.w3.org/2000/svg" width="515" height="33" viewBox="0 0 515 33"><!----> <!----> <!----> <g data-v-5f19e91b="" id="f6d81936-3772-7530-0aed-8d00239b73a4" fill="black" transform="matrix(5.5658623541953265,0,0,5.5658623541953265,69.5985161272904,-35.74738627913126)"><path d="M0.62 5.36L1.69 5.53C1.72 5.71 1.82 6.36 1.82 6.59L1.82 12.63C1.82 12.87 1.72 13.51 1.69 13.69L0.59 13.92L0.66 14.62C0.66 14.62 2.03 14.55 2.31 14.55L5.63 14.55C5.91 14.55 7.22 14.60 7.22 14.60L7.49 14.35L7.70 12.24L6.93 12.17C6.90 12.39 6.76 12.89 6.72 13.10C6.69 13.23 6.57 13.43 6.43 13.62C6.12 13.68 5.64 13.75 5.21 13.75L3.19 13.75C3.16 13.48 3.09 12.77 3.09 12.21L3.09 9.86C3.33 9.83 3.57 9.81 3.70 9.81L4.44 9.81C4.72 9.81 5.56 9.90 5.56 9.90L5.68 10.84L6.36 10.75C6.36 10.75 6.31 9.93 6.31 9.23C6.31 8.95 6.33 8.05 6.33 8.05L5.68 7.98L5.56 8.90C5.56 8.90 5.00 9.03 4.72 9.03L3.70 9.03C3.58 9.03 3.33 9.02 3.09 9.00L3.09 7.01C3.09 6.47 3.16 5.75 3.19 5.46L5.03 5.46C5.42 5.46 5.85 5.50 6.16 5.53C6.30 5.71 6.43 5.91 6.44 6.01C6.50 6.22 6.57 6.54 6.59 6.76L7.41 6.69L7.31 4.79L7.04 4.54C7.04 4.54 5.73 4.68 5.45 4.68L2.31 4.68C2.03 4.68 0.69 4.61 0.69 4.61ZM10.86 7.88L10.60 7.63L10.09 7.63C9.81 7.63 8.81 7.57 8.81 7.57L8.74 8.32L9.80 8.54C9.80 8.54 9.94 9.32 9.94 9.60L9.94 12.63C9.94 12.91 9.80 13.69 9.80 13.69L8.74 13.92L8.81 14.62C8.81 14.62 10.08 14.55 10.36 14.55C11.48 14.55 12.45 14.62 12.45 14.62L12.54 13.79L11.17 13.69C11.17 13.69 11.07 12.91 11.07 12.21L11.07 10.57C11.13 9.25 11.66 8.48 12.95 8.47L13.01 8.47C13.10 8.76 13.20 9.09 13.20 9.17L13.20 9.91L14.01 9.95L14.15 7.64C14.15 7.64 13.72 7.50 13.20 7.50C12.19 7.50 11.49 7.91 10.95 8.81ZM17.75 7.50C15.69 7.50 14.70 9.02 14.70 11.12C14.70 13.23 15.81 14.69 17.92 14.69C19.50 14.69 20.40 13.85 20.40 13.85L20.01 13.20C20.01 13.20 19.11 13.78 17.92 13.78C16.66 13.78 16.06 12.49 16.02 11.23L20.20 11.23L20.44 10.77C20.44 8.81 19.71 7.50 17.75 7.50ZM17.70 8.23C18.69 8.23 19.15 9.02 19.15 10.01C19.15 10.08 19.14 10.29 19.14 10.29L16.03 10.53C16.13 9.37 16.55 8.23 17.70 8.23ZM21.11 4.65L22.18 4.87C22.18 4.87 22.32 5.66 22.32 5.94L22.32 12.63C22.32 12.91 22.20 13.57 22.18 13.69L21.10 13.92L21.17 14.62C21.17 14.62 22.44 14.55 22.72 14.55C23.84 14.55 24.53 14.62 24.53 14.62L24.63 13.79L23.53 13.69C23.52 13.58 23.45 12.82 23.45 12.21L23.45 6.36C23.45 5.70 23.51 4.65 23.55 4.21L23.28 3.96L22.47 3.96C22.19 3.96 21.18 3.91 21.18 3.91ZM25.91 8.43L23.60 10.84L25.59 12.94L26.31 13.72L25.51 13.87L25.58 14.57L27.01 14.55C28.13 14.55 28.81 14.62 28.81 14.62L28.91 13.79L28.03 13.71C27.57 13.36 26.92 12.91 26.77 12.74L24.85 10.64L25.98 9.42C26.24 9.16 26.91 8.74 27.37 8.48L28.42 8.37L28.38 7.56C28.38 7.56 27.72 7.63 26.60 7.63C26.32 7.63 25.38 7.59 25.38 7.59L25.31 8.32ZM28.59 11.52L31.60 11.52L31.67 10.47L28.56 10.47ZM36.32 4.54C35.67 4.54 34.51 4.65 33.75 4.68C33.29 4.65 32.35 4.61 32.35 4.61L32.28 5.36L33.36 5.53C33.39 5.73 33.49 6.37 33.49 6.59L33.49 12.63C33.49 12.87 33.39 13.51 33.36 13.69L32.26 13.92L32.33 14.62C32.33 14.62 33.70 14.55 33.98 14.55C35.10 14.55 36.02 14.62 36.02 14.62L36.12 13.79L34.86 13.69C34.83 13.50 34.76 12.80 34.76 12.21L34.76 10.32C35.14 10.33 35.59 10.33 35.99 10.33L36.09 10.33L37.46 12.92C37.65 13.26 38.23 14.55 38.23 14.55C39.35 14.55 40.45 14.62 40.45 14.62L40.54 13.79L39.54 13.69C39.31 13.38 38.98 12.92 38.85 12.71C38.77 12.60 38.05 11.44 37.37 10.12C38.56 9.73 39.41 8.81 39.41 7.43C39.41 5.50 38.23 4.54 36.32 4.54ZM35.73 5.24C37.17 5.24 38.09 5.98 38.09 7.45C38.09 8.92 37.16 9.63 35.71 9.63C35.46 9.63 35.11 9.60 34.76 9.58L34.76 7.01C34.76 6.40 34.82 5.67 34.87 5.32C35.22 5.28 35.56 5.24 35.73 5.24ZM43.90 7.50C41.85 7.50 40.85 9.02 40.85 11.12C40.85 13.23 41.96 14.69 44.07 14.69C45.65 14.69 46.55 13.85 46.55 13.85L46.16 13.20C46.16 13.20 45.26 13.78 44.07 13.78C42.81 13.78 42.21 12.49 42.17 11.23L46.35 11.23L46.59 10.77C46.59 8.81 45.86 7.50 43.90 7.50ZM43.85 8.23C44.84 8.23 45.30 9.02 45.30 10.01C45.30 10.08 45.29 10.29 45.29 10.29L42.18 10.53C42.28 9.37 42.70 8.23 43.85 8.23ZM49.92 7.50C48.62 7.50 47.66 8.19 47.66 9.37C47.66 11.63 51.20 11.44 51.20 12.91C51.20 13.65 50.71 13.97 49.92 13.97C49.48 13.97 49.07 13.89 48.75 13.64C48.64 13.31 48.54 12.95 48.54 12.81L48.54 12.28L47.73 12.24L47.57 14.14C47.57 14.14 48.50 14.69 49.88 14.69C51.41 14.69 52.35 14.11 52.35 12.64C52.35 10.43 48.78 10.57 48.78 9.14C48.78 8.57 49.22 8.23 49.91 8.23C50.30 8.23 50.55 8.27 50.85 8.40C50.95 8.72 51.04 9.06 51.04 9.20L51.04 9.70L51.86 9.74L52.02 7.74C51.35 7.60 50.60 7.50 49.92 7.50ZM57.43 8.32L58.42 8.54C58.42 8.54 58.56 9.32 58.56 9.60L58.56 11.61C58.56 12.73 57.95 13.79 56.80 13.79C55.76 13.79 55.41 13.02 55.41 11.98L55.41 10.02C55.41 9.32 55.51 7.88 55.51 7.88L55.24 7.63L54.43 7.63C54.15 7.63 53.28 7.57 53.28 7.57L53.21 8.32L54.14 8.54C54.14 8.54 54.28 9.32 54.28 9.60L54.28 11.51C54.28 13.40 54.61 14.69 56.55 14.69C57.85 14.69 58.45 13.92 58.72 13.45L58.90 14.55C60.02 14.55 60.70 14.62 60.70 14.62L60.80 13.79L59.84 13.69C59.84 13.69 59.70 12.91 59.70 12.21L59.70 10.02C59.70 9.32 59.79 7.88 59.79 7.88L59.53 7.63L58.72 7.63C58.44 7.63 57.50 7.57 57.50 7.57ZM66.00 7.50C64.95 7.50 64.23 8.13 63.90 8.78L63.81 7.88L63.55 7.63L63.04 7.63C62.76 7.63 61.75 7.57 61.75 7.57L61.68 8.32L62.75 8.54C62.75 8.54 62.89 9.32 62.89 9.60L62.89 12.70C62.86 13.02 62.75 13.69 62.75 13.69L61.68 13.92L61.75 14.62C61.75 14.62 63.03 14.55 63.31 14.55C64.43 14.55 65.11 14.62 65.11 14.62L65.21 13.79L64.12 13.69C64.12 13.69 64.02 12.91 64.02 12.21L64.02 10.71C64.04 9.34 64.71 8.36 65.76 8.36C66.81 8.36 67.03 9.51 67.03 10.68L67.03 12.63C67.03 12.98 66.96 13.38 66.89 13.69L65.95 13.92L66.02 14.62C66.02 14.62 67.17 14.55 67.45 14.55C68.57 14.55 69.26 14.62 69.26 14.62L69.36 13.79L68.26 13.69C68.26 13.69 68.17 12.91 68.17 12.21L68.17 10.68L68.17 10.58C68.21 9.27 68.88 8.36 69.90 8.36C70.95 8.36 71.18 9.51 71.18 10.68L71.18 12.63C71.18 12.98 71.11 13.38 71.04 13.69L70.10 13.92L70.17 14.62C70.17 14.62 71.32 14.55 71.60 14.55C72.72 14.55 73.40 14.62 73.40 14.62L73.50 13.79L72.41 13.69C72.41 13.69 72.31 12.91 72.31 12.21L72.31 10.68C72.31 8.75 71.92 7.50 70.14 7.50C69.08 7.50 68.33 8.15 67.94 8.83C67.68 7.99 67.10 7.50 66.00 7.50ZM77.25 7.50C75.19 7.50 74.20 9.02 74.20 11.12C74.20 13.23 75.31 14.69 77.42 14.69C79.00 14.69 79.90 13.85 79.90 13.85L79.51 13.20C79.51 13.20 78.61 13.78 77.42 13.78C76.16 13.78 75.56 12.49 75.52 11.23L79.70 11.23L79.94 10.77C79.94 8.81 79.21 7.50 77.25 7.50ZM77.20 8.23C78.19 8.23 78.65 9.02 78.65 10.01C78.65 10.08 78.64 10.29 78.64 10.29L75.53 10.53C75.63 9.37 76.05 8.23 77.20 8.23Z"></path></g> <!----> <g data-v-5f19e91b="" id="afc9549a-e239-23e0-911a-1cc33abd4e4e" transform="matrix(0.5965667724609375,0,0,0.5965667724609375,-3.150690688537722,-13.673639469518093)" stroke="none" fill="black"><path d="M5.833 37.065S1.672 70.26 36.4 70.26c0 0 8.655-33.195-30.567-33.195zM94.074 23.155c-47.241 0-51.611 29.712-50.744 44.967 7.981-23.02 29.738-28.101 29.738-28.101-20.77 12.557-25.03 35.225-25.307 36.825 52.753-2.036 46.313-53.691 46.313-53.691z"></path></g></svg>